<svg width="16" height="16" viewBox="0 0 16 16" fill="none" xmlns="http://www.w3.org/2000/svg">
<path d="M10.2385 1.65025H5.6162C5.45887 1.90093 5.42569 2.04831 5.6162 2.34239C5.6162 2.34239 6.80074 2.42896 7.21628 2.67135C7.63182 2.91375 7.71227 12.7315 7.47599 13.2849C7.23971 13.8384 5.78786 13.6745 5.78786 13.6745C5.71134 13.9557 5.74703 14.1012 5.88309 14.3497H10.0471C10.3836 13.9853 10.4375 13.7373 10.3415 13.233C10.3415 13.233 8.99407 13.8168 8.80052 13.2849C8.60697 12.7531 8.71177 3.04407 8.99407 2.74061C9.27638 2.43715 10.4973 2.67135 10.4973 2.67135C10.5476 2.2345 10.4951 2.01064 10.2385 1.65025Z" fill="white"/>
</svg>
