<svg width="64" height="64" viewBox="0 0 64 64" fill="none" xmlns="http://www.w3.org/2000/svg">
<path d="M41.8719 3.99792H21.4876C20.7938 5.10339 20.6475 5.75334 21.4876 7.05019C21.4876 7.05019 26.7114 7.43196 28.5439 8.50093C30.3764 9.56989 30.7312 52.8657 29.6892 55.3063C28.6472 57.7469 22.2446 57.0243 22.2446 57.0243C21.9072 58.2641 22.0646 58.9062 22.6646 60.0021H41.0279C42.5116 58.3947 42.7492 57.3014 42.3259 55.0772C42.3259 55.0772 36.3839 57.6518 35.5303 55.3063C34.6768 52.9608 35.139 10.1446 36.3839 8.80635C37.6288 7.46811 43.0131 8.50093 43.0131 8.50093C43.235 6.57441 43.0033 5.58719 41.8719 3.99792Z" fill="white"/>
</svg>
